<svg xmlns="http://www.w3.org/2000/svg" width="182" height="182" viewBox="0 0 182 182" fill="none">
  <g clip-path="url(#clip0_1401_3177)">
    <path fill-rule="evenodd" clip-rule="evenodd" d="M154.764 136.644C182.634 111.778 146.652 97.5887 153.283 76.5748C159.915 55.5608 176.701 23.9583 114.07 29.5261C51.4401 35.0938 -0.555906 98.35 21.772 128.121C44.0999 157.891 126.894 161.511 154.764 136.644Z" fill="var(--bg-light)"/>
    <path fill-rule="evenodd" clip-rule="evenodd" d="M103.06 85.6646C104.869 86.543 106.678 87.4217 108.487 88.3002C111.337 89.6841 114.237 91.1015 116.535 93.278C118.833 95.4545 120.477 98.5504 120.132 101.691C119.728 105.382 116.8 108.226 114.051 110.733C110.467 114.002 106.884 117.271 103.3 120.539C101.73 121.972 100.01 124.011 100.856 125.958C103.052 131.014 105.042 136.765 103.045 141.902C102.481 143.352 101.313 144.85 99.7538 144.778C98.5933 144.725 97.6732 143.816 96.927 142.929C93.9601 139.404 91.7589 135.243 90.5167 130.812C88.9262 125.138 89.1204 118.489 92.9909 114.036C95.9985 110.575 101.181 108.248 101.501 103.682C95.6415 98.7242 87.1652 97.0347 79.8427 99.3651C72.52 101.695 66.5958 107.967 64.7049 115.391C63.6753 119.434 65.9802 123.596 68.8152 126.665C71.6501 129.735 75.1277 132.279 77.3091 135.839C81.696 142.999 79.7809 152.167 77.7281 160.303C77.0157 163.126 72.7173 163.597 70.5772 161.615C68.4374 159.633 68.0688 156.396 68.2957 153.494C68.5223 150.592 69.2023 147.658 68.632 144.803C67.16 137.434 58.5031 134.071 54.2613 127.859C51.0465 123.152 50.6033 116.993 51.7939 111.423C52.9841 105.854 55.646 100.724 58.2796 95.6704C53.3787 88.1949 51.3214 78.9158 52.6051 70.0788C53.2528 65.6198 47.3628 62.189 47.976 57.7254C48.4657 54.1628 52.6602 52.5542 56.206 51.8839C62.9544 50.6082 69.8553 50.1367 76.7155 50.4825C78.2491 50.5597 78.9242 48.3395 78.156 47.0146C77.3877 45.6894 75.888 45.0072 74.6455 44.1074C72.1429 42.2947 70.5704 39.4368 69.7036 36.4775C68.591 32.6798 68.5888 28.3676 70.6554 24.9892C71.1718 24.145 72.0597 22.8937 73.4106 24.1063C73.8159 21.9897 78.1191 19.9554 80.8704 21.0917C82.5194 21.7727 84.2767 20.3761 85.3246 18.9362C86.3727 17.4964 87.3863 15.7577 89.1277 15.367C92.2462 14.6674 94.2431 18.8251 93.8839 21.9897C93.5248 25.1544 92.128 28.4976 93.4993 31.3745C94.0208 32.4682 94.924 33.4153 95.097 34.6138C95.2472 35.6536 94.9781 35.2481 94.3928 37.6421C93.8072 40.0357 92.3969 40.8047 91.8154 42.129C90.9205 44.1674 91.0549 45.9578 89.1849 47.762C88.8704 48.0656 89.5111 48.7613 89.2849 49.2767C93.8905 49.3425 97.389 53.1693 100.954 56.0757C105.387 59.6903 110.81 62.2188 116.517 62.7093C122.224 63.1997 128.196 61.5314 132.457 57.7169C134.125 56.2238 138.104 58.1746 138.395 55.959C138.45 55.3849 138.298 55.1378 137.752 54.9966C137.47 54.9236 136.802 55.0755 136.595 54.8097C135.988 54.031 139.526 52.6884 139.376 53.7578C139.338 54.0318 139.177 54.2341 139.198 54.4115C139.257 54.9274 139.552 55.0866 140.007 55.1776C140.966 55.2373 142.339 54.5821 142.913 53.7578C143.297 53.2057 143.147 53.0592 142.846 53.0349C142.353 52.9949 141.455 53.2814 141.823 52.6546C142.275 51.8839 143.441 51.153 144.55 51.824C144.789 51.9689 144.705 52.2501 144.582 52.5263C144.357 53.0332 144.002 53.5231 145.275 53.1247C147.242 52.509 147.355 52.6243 147.863 52.7747C148.371 52.9252 149.118 53.8185 149.595 54.653C150.578 56.3699 151.587 58.1707 151.678 60.1453C151.77 62.1198 150.627 64.3034 148.683 64.6982C148.666 65.2728 148.948 65.8142 149.376 66.1949C149.842 66.6099 151.04 66.357 150.839 66.7278C150.185 67.9324 148.592 68.2413 147.338 67.8198C146.993 67.7041 147.788 67.1112 147.863 66.7004C147.984 66.0425 147.846 65.3342 147.444 64.7967C146.31 65.275 145.175 65.7533 144.041 66.2318C144.37 66.6512 144.221 67.1491 144.55 67.5684C144.861 67.9645 145.658 67.8642 145.792 68.4263C145.938 69.0375 144.759 69.294 144.151 69.3511C143.484 69.4137 142.446 69.4821 142.135 69.0375C141.782 68.5321 142.889 68.3702 142.94 67.8414C142.996 67.2641 142.784 66.6473 142.275 66.368C141.301 65.8329 139.903 66.8181 140.085 67.9116C140.543 70.6666 139.398 73.6288 137.203 75.3651C135.008 77.1014 131.852 77.5413 129.263 76.4721C126.923 75.5053 124.33 76.749 121.907 77.4901C116.416 79.1708 110.149 78.099 105.534 74.6897C105.268 78.5008 104.536 82.6288 102.091 85.4389C102.487 85.6646 102.283 85.6646 103.06 85.6646Z" fill="white"/>
    <path d="M78.6335 44.4027C79.3706 44.4027 79.9682 43.8072 79.9682 43.0725C79.9682 42.3378 79.3706 41.7422 78.6335 41.7422C77.8964 41.7422 77.2988 42.3378 77.2988 43.0725C77.2988 43.8072 77.8964 44.4027 78.6335 44.4027Z" fill="#9484F7"/>
    <path d="M88.2092 41.7396C88.9463 41.7396 89.5438 41.1421 89.5438 40.405C89.5438 39.6679 88.9463 39.0703 88.2092 39.0703C87.4721 39.0703 86.8745 39.6679 86.8745 40.405C86.8745 41.1421 87.4721 41.7396 88.2092 41.7396Z" fill="#9484F7"/>
    <path fill-rule="evenodd" clip-rule="evenodd" d="M96.0033 99.8552C95.4025 99.5859 94.8009 99.3163 94.1952 99.0537C89.7627 97.1308 84.4461 95.7479 80.264 98.1641C79.6253 94.0987 83.9996 90.9938 88.025 90.0741C89.1291 89.8217 90.2682 89.6429 91.4075 89.464C94.4221 88.9906 97.4375 88.5169 99.804 86.6843C103.318 83.9632 104.254 79.1131 104.564 74.6897C109.178 78.099 115.445 79.1708 120.937 77.4901C121.356 77.362 121.78 77.2186 122.207 77.0742C124.249 76.3848 126.357 75.6725 128.293 76.4721C130.882 77.5413 134.037 77.1014 136.232 75.3651C138.427 73.6288 139.572 70.6666 139.114 67.9116C138.933 66.8181 140.33 65.8329 141.305 66.368C141.813 66.6473 142.025 67.2641 141.969 67.8414C141.946 68.078 141.712 68.2414 141.492 68.3947C141.22 68.584 140.969 68.7582 141.165 69.0375C141.475 69.4821 142.513 69.4137 143.18 69.3511C143.789 69.294 144.967 69.0375 144.821 68.4263C144.745 68.1042 144.45 67.9997 144.154 67.8946C143.933 67.8162 143.712 67.7376 143.579 67.5684C143.414 67.3588 143.369 67.1295 143.325 66.9001C143.28 66.6708 143.235 66.4415 143.07 66.2318L146.473 64.7967C146.876 65.3342 147.013 66.0425 146.892 66.7004C146.86 66.8771 146.694 67.0875 146.544 67.2789C146.344 67.533 146.171 67.7538 146.367 67.8198C147.621 68.2414 149.214 67.9324 149.868 66.7278C149.971 66.5393 149.711 66.5121 149.37 66.4762C149.04 66.4415 148.634 66.3988 148.405 66.1949C147.977 65.8142 147.695 65.2728 147.713 64.6982C149.656 64.3034 150.8 62.1198 150.708 60.1453C150.616 58.1707 149.607 56.3699 148.624 54.653C148.147 53.8185 147.401 52.9252 146.892 52.7747C146.861 52.7655 146.831 52.7563 146.801 52.7473C146.363 52.6129 146.149 52.5474 144.304 53.1247C143.161 53.4824 143.331 53.1242 143.54 52.6806C143.564 52.6299 143.588 52.5782 143.611 52.5263C143.734 52.2501 143.818 51.9689 143.579 51.824C142.47 51.153 141.305 51.8839 140.853 52.6546C140.582 53.115 140.995 53.0827 141.428 53.049C141.585 53.0366 141.744 53.0242 141.875 53.0349C142.176 53.0592 142.326 53.2057 141.942 53.7578C141.369 54.5821 139.995 55.2373 139.036 55.1776C138.581 55.0866 138.286 54.9274 138.227 54.4115C138.216 54.3171 138.256 54.2157 138.302 54.1004C138.343 53.9988 138.388 53.8862 138.406 53.7578C138.555 52.6884 135.017 54.031 135.624 54.8098C135.759 54.983 136.09 54.9789 136.382 54.975C136.538 54.9731 136.683 54.9714 136.782 54.9966C137.327 55.1378 137.48 55.3849 137.424 55.959C137.265 57.1687 136.007 57.1362 134.625 57.1005C133.477 57.0709 132.244 57.0391 131.486 57.7169C127.225 61.5314 121.253 63.1997 115.547 62.7093C109.839 62.2189 104.416 59.6903 99.9831 56.0757C99.3711 55.5768 98.7613 55.0507 98.1473 54.5215C95.1848 51.9664 92.1292 49.3313 88.3142 49.2767C88.4261 49.0217 88.3259 48.7225 88.2341 48.4487C88.1402 48.1689 88.0553 47.9154 88.2142 47.762C89.1992 46.8117 89.7023 44.9609 90.1381 43.3578C90.5298 41.9171 90.8668 40.6768 91.4502 40.4708C92.6177 40.0585 92.9603 39.0291 93.3554 37.842C93.3774 37.7758 93.3995 37.709 93.4221 37.6421C93.5568 37.2402 93.6771 36.9155 93.7795 36.6391C94.0928 35.7934 94.2396 35.3974 94.1263 34.6138C94.0135 33.8324 93.5903 33.1578 93.1649 32.4798C92.9377 32.1177 92.7101 31.755 92.5286 31.3745C91.531 29.2815 91.9984 26.9419 92.4655 24.6036C92.6405 23.7277 92.8154 22.8521 92.9132 21.9897C93.2724 18.8251 91.2755 14.6674 88.157 15.367C86.6374 15.7079 85.6721 17.0751 84.7545 18.3747C84.6203 18.5644 84.4874 18.7528 84.3539 18.9362C83.3061 20.3761 81.5487 21.7727 79.8997 21.0917C77.1484 19.9554 72.8452 21.9897 72.4399 24.1063C71.089 22.8937 70.2011 24.145 69.6847 24.9892C67.6181 28.3676 67.6203 32.6798 68.733 36.4775C69.5998 39.4368 71.1722 42.2947 73.6749 44.1074C73.993 44.338 74.3281 44.5542 74.6635 44.7704C75.6375 45.3989 76.6138 46.0289 77.1853 47.0146C77.9536 48.3395 77.2785 50.5597 75.7448 50.4825C68.8846 50.1367 61.9837 50.6082 55.2353 51.8839C51.6895 52.5542 47.495 54.1628 47.0053 57.7254C46.6993 59.9523 48.0121 61.9223 49.3242 63.8911C50.6422 65.8683 51.9591 67.8446 51.6344 70.0788C50.3507 78.9158 52.408 88.1949 57.3089 95.6704C54.6753 100.724 52.0135 105.854 50.8232 111.423C49.6327 116.993 50.0758 123.152 53.2906 127.859C54.966 130.312 57.3298 132.321 59.6679 134.308C63.2497 137.352 66.7705 140.344 67.6613 144.803C68.0799 146.899 67.8249 149.037 67.5699 151.174C67.4776 151.948 67.3852 152.722 67.325 153.494C67.0981 156.396 67.4667 159.633 69.6066 161.615C70.8284 162.747 72.7542 163.079 74.314 162.63C74.3007 162.868 74.2869 163.091 74.274 163.299C74.2029 164.438 74.1563 165.185 74.3567 166.07C74.4087 166.3 74.4936 166.563 74.7152 166.647C75.1563 166.814 75.4507 166.14 75.4208 165.683C75.308 163.952 75.0915 162.975 74.8831 162.423C75.7909 162.02 76.5029 161.311 76.7575 160.303C78.8102 152.167 80.7253 142.999 76.3384 135.839C74.8892 133.474 72.8678 131.557 70.8427 129.636C69.8199 128.666 68.796 127.695 67.8445 126.665C65.0095 123.596 62.7046 119.434 63.7343 115.391C65.6251 107.967 71.5493 101.695 78.8721 99.3651C86.1945 97.0347 94.6709 98.7242 100.53 103.682C100.312 106.792 97.8384 108.864 95.3326 110.962C94.1593 111.944 92.9792 112.932 92.0202 114.036C88.1497 118.489 87.9555 125.138 89.546 130.812C90.7882 135.243 92.9894 139.404 95.9563 142.929C96.7025 143.816 97.6227 144.725 98.7831 144.778C100.343 144.85 101.51 143.352 102.074 141.902C104.071 136.765 102.082 131.014 99.8853 125.958C99.0393 124.011 100.759 121.972 102.33 120.539L113.08 110.733C115.829 108.226 118.757 105.382 119.162 101.691C119.506 98.5504 117.863 95.4545 115.564 93.278C113.266 91.1015 110.367 89.6841 107.517 88.3002L102.089 85.6646C103.878 87.9558 106.579 89.2422 109.237 90.5087C109.751 90.7533 110.263 90.9972 110.767 91.2474C113.878 92.7934 117.072 95.0495 117.784 98.4398C118.659 102.605 115.48 106.428 112.532 109.507C108.799 113.406 105.034 117.333 100.599 120.417C99.0903 121.466 97.4171 122.443 95.5784 122.509C93.7395 122.574 91.739 121.426 91.4502 119.615C91.1896 117.98 92.3199 116.482 93.3825 115.21L101.242 105.803C102.437 104.373 104.01 104.001 105.882 103.558C106.541 103.402 107.236 103.238 107.965 103.015C103.555 103.24 99.7999 101.557 96.0033 99.8552ZM64.1939 74.5713C64.5113 77.4188 65.3917 80.2701 67.1767 82.5157C68.962 84.7616 71.744 86.3249 74.6164 86.2009C75.5783 86.1591 75.8865 84.7332 75.3153 83.9608C74.82 83.2911 74.0008 82.986 73.2065 82.6905C73.0852 82.6453 72.9643 82.6002 72.8452 82.5541C71.9476 82.2071 70.9905 81.6261 70.8286 80.6804C73.3613 82.6439 77.1426 82.8261 79.8536 81.1153C80.7971 83.8138 83.9273 85.434 86.7602 84.9885C89.5931 84.543 91.961 82.2869 92.9006 79.587C92.9186 79.5353 92.9363 79.4831 92.954 79.431C93.0969 79.0107 93.2435 78.5787 93.5679 78.2812C93.8701 78.0038 94.2821 77.8861 94.6781 77.7769L102.424 75.6427C102.616 75.5898 102.834 75.5398 103.005 75.6429C103.187 75.7529 103.237 75.9895 103.264 76.1999C103.8 80.4339 101.414 84.8812 97.5833 86.7901C95.5294 87.8136 93.1821 88.148 90.8549 88.4798C87.8187 88.9122 84.8167 89.34 82.5451 91.2869C81.3087 92.3464 80.4511 93.7381 79.5916 95.1327C79.1812 95.7988 78.7701 96.4657 78.3176 97.0971C75.541 100.97 70.4418 103.592 65.9129 102.079C63.3137 101.211 61.2933 99.1551 59.6325 96.9816C54.6333 90.4386 51.9945 82.1428 52.2984 73.9249C52.3534 72.4339 52.5073 70.9243 53.0484 69.5331C56.4802 73.507 60.4486 77.0208 64.8129 79.9495C64.6603 79.1609 64.1119 78.5134 63.5659 77.9223C62.004 76.2312 60.2799 74.647 58.5579 73.0648C54.5535 69.3855 50.5589 65.7157 48.6355 60.7262C48.2128 59.6294 47.9 58.432 48.1604 57.2862C48.7513 54.6872 51.8167 53.6054 54.4384 53.0776C60.7344 51.8106 67.1597 51.1829 73.5829 51.2076C73.9241 55.1718 77.2345 58.7174 81.1932 59.2394C85.152 59.7614 89.3242 57.1214 90.4356 53.2999C90.4686 53.1863 90.4994 53.0715 90.5305 52.9563C90.6688 52.4428 90.8083 51.924 91.1384 51.5129C91.5426 51.0096 92.3648 50.7621 92.8365 51.2032C96.3341 54.4724 100.004 57.6155 104.186 59.9536C108.368 62.2917 113.12 63.7996 117.911 63.5882C109.728 66.5631 101.363 69.0429 92.8778 71.0092C92.2292 71.1597 91.4254 71.2582 91.0085 70.7408C89.5307 68.9065 87.1208 67.8596 84.7662 68.0293C82.4116 68.1989 80.1778 69.5801 78.98 71.6074C78.5466 72.3412 77.4646 72.249 76.6415 72.0194C74.9294 71.5421 73.1674 70.8078 72.1558 69.3511C71.9849 69.1052 71.8369 68.8405 71.6894 68.5765C71.4001 68.0596 71.1121 67.5444 70.6561 67.1753C70.0108 66.6531 69.1656 66.5259 68.3287 66.3998C68.096 66.3648 67.864 66.3299 67.6371 66.2864C65.0534 65.7936 62.7653 63.9627 61.7243 61.5556C64.1599 59.9305 67.449 60.7017 70.1382 61.8641C70.5619 62.047 70.9864 62.2392 71.4125 62.4324C73.6926 63.4649 76.0188 64.5184 78.478 64.2932C80.569 64.1019 82.3941 63.0177 84.2267 61.9289C85.8473 60.966 87.4736 59.9997 89.2956 59.6437C93.9693 58.7303 98.5567 62.198 100.745 66.4131C100.762 66.4454 100.778 66.4779 100.795 66.5104C101.153 67.2023 101.54 67.9509 102.258 68.2414C101.526 64.1386 98.4329 60.5398 94.4772 59.1877C90.5213 57.8353 85.8625 58.7841 82.7567 61.5748C80.8296 63.3065 77.9011 63.4288 75.3859 62.7925C73.969 62.4339 72.6188 61.8726 71.2676 61.311C70.22 60.8755 69.1717 60.4396 68.0913 60.0979C65.6178 59.3158 62.7612 59.0843 60.5595 60.4532C59.8987 59.0021 59.0144 57.6519 57.9471 56.465C59.0049 62.5125 64.5406 67.4847 70.6869 67.9079L67.2762 69.1992C66.4793 69.5008 65.6533 69.8214 65.0684 70.4394C64.0672 71.4977 64.0327 73.1258 64.1939 74.5713ZM62.5112 116.872C62.18 118.536 61.998 120.34 62.7452 121.865C63.148 122.687 63.791 123.362 64.4234 124.026L64.4666 124.071C68.2702 128.066 71.8432 132.278 75.1614 136.682C73.688 138.092 72.0478 139.329 70.2858 140.359C69.7949 140.646 69.2646 140.925 68.6956 140.915C67.8475 140.9 67.1583 140.261 66.5618 139.66C62.395 135.465 58.3354 131.164 54.3889 126.763C53.1341 125.363 51.8584 123.898 51.2881 122.109C50.5633 119.836 51.0763 117.376 51.5939 115.048C53.0208 108.625 54.5219 102.028 58.2427 96.5943C60.333 100.334 64.2043 103.034 68.4469 103.71C65.5052 107.575 63.4588 112.113 62.5112 116.872ZM89.0196 45.272C88.3972 46.5688 87.3474 47.7144 85.9858 48.1893C84.1704 48.8227 82.174 48.1891 80.3967 47.4565C79.4731 47.0757 78.5401 46.6535 77.8247 45.9578C77.2176 45.3676 76.8016 44.6129 76.4165 43.8599C75.2168 41.5148 74.2252 39.0638 73.4574 36.5452C72.8226 34.4626 72.4955 31.827 74.1854 30.4477C76.1158 31.9239 78.7119 32.2942 81.1288 32.0141C83.2779 31.7652 85.3364 31.0534 87.3843 30.3456C87.6396 30.2572 87.8951 30.1689 88.1504 30.0815C88.4419 29.9818 88.7872 29.8898 89.0388 30.0672C89.2312 30.2029 89.2992 30.4518 89.3516 30.6809C90.1291 34.0889 90.3555 37.6209 90.0197 41.0998C89.8816 42.5306 89.6421 43.9754 89.0196 45.272ZM96.7753 142.629C93.3151 138.033 90.9969 132.589 90.0842 126.916C89.6923 124.48 89.5656 121.927 90.3805 119.598C91.1585 122.649 94.8436 124.597 97.8156 123.529C98.5914 125.121 99.2966 126.747 99.9285 128.401C101.589 132.747 102.719 137.693 100.88 141.967C100.438 142.994 99.565 144.088 98.4552 143.924C97.736 143.817 97.2116 143.209 96.7753 142.629ZM73.736 23.9483C74.6108 22.3871 76.5357 21.5939 78.3239 21.744C78.7413 21.779 79.1567 21.8318 79.5641 21.8836C80.8546 22.0475 82.0617 22.2009 82.9731 21.744C84.3609 21.0484 84.9409 20.0813 85.5311 19.0971C85.9252 18.44 86.3239 17.7752 86.9703 17.1784C87.3795 16.8008 87.8357 16.4384 88.3802 16.3191C89.4941 16.075 90.5635 16.9201 91.1978 17.8644C92.5592 19.891 92.7388 22.6494 91.6516 24.8344C90.4545 27.2406 87.9861 28.7464 85.5167 29.8233C83.739 30.5987 81.8576 31.2274 79.9175 31.2674C77.9771 31.3075 75.9581 30.6952 74.6203 29.2946C73.2825 27.8936 72.7901 25.6366 73.736 23.9483ZM68.2653 150.581C68.1823 149.966 68.1166 149.28 68.491 148.784C70.0254 148.922 71.6088 148.368 72.72 147.305C72.3819 146.61 71.3358 146.657 70.675 147.06C70.4214 147.215 70.1885 147.405 69.9562 147.595C69.5833 147.899 69.2122 148.202 68.7599 148.355C68.3228 147.924 68.4012 147.164 68.7647 146.669C69.1283 146.175 69.6995 145.884 70.2494 145.61L73.7122 143.884C73.0471 143.228 71.9381 143.219 71.089 143.612C70.2397 144.004 69.59 144.717 68.9649 145.411C68.2709 144.203 68.7662 142.47 69.9946 141.807L74.4808 139.388C74.8292 139.2 75.1988 139.007 75.5951 139.018C76.4527 139.044 76.97 139.969 77.2047 140.791C77.8834 143.171 77.6764 145.699 77.4639 148.163C77.1513 151.787 76.8334 155.438 75.8135 158.93C75.4621 160.134 74.9071 161.445 73.7394 161.911C72.4729 162.417 70.983 161.649 70.2254 160.518C69.4677 159.387 69.2663 157.987 69.0843 156.639L68.2653 150.581ZM128.073 68.4263C128.559 68.3671 128.979 67.8079 128.743 67.3813L127.075 64.3757C126.855 63.9796 126.63 63.5669 126.601 63.1153C126.572 62.6639 126.798 62.1618 127.23 62.0223C127.849 61.8223 128.417 62.4181 128.775 62.9587C129.529 64.0981 130.187 65.3005 130.739 66.5495C131.393 65.6803 130.678 64.48 130.025 63.6098C129.371 62.7399 128.8 61.4057 129.617 60.6859C130.424 59.9752 131.707 60.7036 132.325 61.5826C132.65 62.0444 132.917 62.5564 133.183 63.0667C133.698 64.0551 134.21 65.0365 135.13 65.6293C135.528 65.3871 135.33 64.78 135.089 64.3825L131.999 59.2853C131.722 58.8295 132.179 58.2115 132.708 58.1345C133.237 58.0576 133.747 58.3393 134.189 58.639C136.314 60.0807 138.007 62.2873 138.406 64.8178C138.805 67.3483 137.721 70.1596 135.492 71.437C134.818 71.8234 134.068 72.0641 133.304 72.2119C128.659 73.1119 123.574 70.1485 122.085 65.6727C121.857 64.9877 121.802 64.052 122.449 63.7275C122.942 63.4802 123.538 63.7741 123.949 64.1417C124.542 64.6729 124.966 65.3526 125.39 66.0326C125.799 66.6876 126.208 67.343 126.768 67.8664C127.125 68.1999 127.587 68.4855 128.073 68.4263ZM79.61 73.4553C80.1807 73.4728 80.7724 73.491 81.2468 73.7972C81.77 74.1348 81.9981 74.9894 81.5023 75.3663C81.3147 75.5087 81.0713 75.5502 80.8386 75.5876C78.6733 75.9334 76.2032 76.2025 74.5201 74.8021C74.1415 74.9741 74.0311 75.493 74.1854 75.8778C74.34 76.2627 74.6836 76.5367 75.0277 76.7696C76.5553 77.8046 78.3838 78.3923 80.2305 78.4421C79.021 79.4856 77.251 79.8408 75.7305 79.3448C75.1338 79.1499 74.2941 78.9279 74.0301 79.4958C75.2012 80.611 76.9885 80.6967 78.608 80.7176C75.7145 82.0915 71.918 81.1968 69.949 78.6768C69.8087 78.4972 69.4925 78.5889 69.3811 78.7874C69.2697 78.9859 69.3001 79.23 69.3336 79.455C69.5039 80.5999 69.7378 81.8588 70.65 82.5757C71.1329 82.9552 71.7318 83.1205 72.3312 83.286C72.5705 83.3517 72.8095 83.4177 73.0415 83.4976C73.8549 83.7766 74.6953 84.3894 74.703 85.2465C72.0832 85.4714 69.5187 83.9921 67.9326 81.9023C66.3466 79.8127 65.6178 77.1926 65.282 74.5941C65.1951 73.9224 65.134 73.2269 65.3298 72.5783C65.72 71.2871 67.0001 70.5064 68.1799 69.8459C69.0358 69.3666 70.2161 68.9252 70.8949 69.6316C73.107 71.9338 76.2381 73.3335 79.4346 73.4495C79.4928 73.4516 79.5513 73.4534 79.61 73.4553ZM85.2292 78.097L118.757 68.849C120.217 68.4462 121.945 68.0941 123.113 69.055C109.839 73.1425 96.394 76.6818 82.8256 79.6605C82.0869 79.8226 81.034 79.7901 80.9051 79.0475C81.3511 79.064 81.3494 78.5658 81.3475 78.039C81.3456 77.5204 81.3436 76.974 81.7688 76.8635L120.84 66.6956C121.076 66.6342 121.376 66.5932 121.521 66.7887C121.756 67.1071 121.274 67.4626 120.892 67.5684L83.6283 77.8907C83.9666 78.3538 84.6754 78.2497 85.2292 78.097ZM123.031 75.4321C120.612 77.047 117.541 77.4709 114.65 77.1293C111.758 76.7878 109.002 75.7393 106.323 74.6038L122.364 70.1237C122.926 69.9667 123.62 69.8432 124.017 70.2703C127.272 73.7744 133.194 74.3998 137.114 71.653C136.657 73.8336 134.678 75.6077 132.453 75.8303C131.186 75.9572 129.938 75.6296 128.696 75.3034C128.367 75.2171 128.038 75.1307 127.71 75.0528C126.142 74.682 124.369 74.5383 123.031 75.4321ZM78.7022 48.597C78.9313 48.2701 79.4244 48.0901 79.7418 48.3325C81.6033 49.754 84.1911 50.1738 86.409 49.4138C87.1169 49.1714 87.9221 49.6735 88.2142 50.3602C88.5064 51.047 88.3885 51.8424 88.1317 52.543C87.3501 54.6763 85.2459 56.2633 82.9731 56.4342C80.7003 56.605 78.3811 55.3502 77.2872 53.3579C76.9496 52.7427 76.8371 51.7786 77.4884 51.5136C78.138 51.2491 78.3241 50.4342 78.3945 49.7383L78.3964 49.7171C78.436 49.3269 78.4772 48.9178 78.7022 48.597ZM140.69 65.6742C140.428 65.7448 140.151 65.8142 139.889 65.7443C139.627 65.6744 139.396 65.4119 139.462 65.1498C141.807 64.7787 144.07 63.9059 146.054 62.6071C146.827 62.1012 147.647 61.2196 147.257 60.3843C146.998 59.8305 146.304 59.6175 145.692 59.6422C144.805 59.6784 143.978 60.0749 143.18 60.4636L138.878 62.5605C138.678 62.3244 138.761 61.9449 138.973 61.719C139.176 61.5013 139.466 61.3897 139.745 61.2819L139.776 61.2698C141.729 60.5144 143.549 59.418 145.127 58.045C145.589 57.6431 145.349 56.8147 144.821 56.5028C144.294 56.191 143.63 56.2524 143.027 56.3648C141.277 56.6904 139.594 57.3631 138.103 58.3318C137.369 58.8089 136.327 59.3369 135.726 58.7009C137.347 57.0646 139.568 56.1913 141.72 55.3623L145.883 53.7578C146.173 53.6464 146.486 53.5331 146.787 53.6098C147.196 53.7141 147.436 54.1262 147.621 54.5045C148.673 56.6504 149.447 58.931 149.919 61.2722C149.987 61.6119 150.044 61.9874 149.868 62.2863C149.709 62.5576 149.399 62.6964 149.108 62.8163C146.367 63.9462 143.553 64.9013 140.69 65.6742ZM120.998 65.8174C120.842 65.9826 120.609 66.0472 120.389 66.1047L82.1517 76.0802C82.7453 74.6516 84.49 74.1629 86.0062 73.8331C96.5564 71.5387 106.891 68.3748 117.215 65.2143C117.802 65.0345 118.389 64.8549 118.976 64.6754C119.485 64.5196 120.04 64.3645 120.539 64.5506C121.038 64.7368 121.363 65.4305 120.998 65.8174ZM69.2455 27.7726C69.4799 27.0086 69.8628 25.9528 70.462 25.4218C70.7677 25.1513 71.1815 24.8625 71.5491 25.0406C71.7804 25.1525 71.8937 25.4112 71.9886 25.6492C72.1303 26.0052 72.3327 26.4825 72.5351 26.9596C72.7374 27.437 72.9398 27.9143 73.0818 28.2703C73.2805 28.7697 73.473 29.5457 73.1082 29.7979C71.5491 30.8763 71.9039 34.813 72.602 36.6246C72.7687 37.057 72.9119 37.9434 72.768 38.5894C72.6244 39.2356 71.9039 39.8168 71.3147 39.5113C70.9767 39.3361 70.4406 38.4077 70.2462 38.0713C70.2285 38.0405 70.2137 38.0148 70.2021 37.9949C67.3299 33.0981 68.922 28.6746 69.2086 27.8784C69.2265 27.8289 69.2392 27.7934 69.2455 27.7726ZM81.8459 80.7955C84.3993 80.324 86.9262 79.7112 89.4115 78.9609C89.4499 78.9493 89.4885 78.9376 89.5271 78.926C90.3007 78.6915 91.0857 78.454 91.8931 78.4579C91.7916 79.7311 91.0818 80.9105 90.1082 81.7411C89.1347 82.5715 87.9155 83.0775 86.6667 83.3653C85.7199 83.5835 84.7215 83.6815 83.7807 83.4393C82.8397 83.1969 81.9622 82.5703 81.6042 81.67C81.4761 81.3473 81.5033 80.8586 81.8459 80.7955ZM85.0113 73.2002C83.3827 73.4303 81.6615 73.3124 80.1956 72.5693C79.8857 72.4123 80.0463 71.9401 80.2652 71.671C81.3904 70.2873 83.0952 69.387 84.8761 69.2356C86.6573 69.0844 88.4904 69.684 89.8345 70.8578C90.0568 71.0519 90.2827 71.3589 90.1325 71.6125C90.0536 71.7459 89.8957 71.8076 89.7491 71.86C88.2011 72.4135 86.6398 72.9704 85.0113 73.2002ZM79.9941 58.1486C78.5461 57.6963 77.4131 56.548 76.5852 55.2808C76.0833 54.5127 75.6727 53.692 75.2619 52.8711C74.9952 52.3375 74.728 51.8041 74.4361 51.2845C74.9724 51.1957 75.4949 51.5602 75.7924 52.0137C76.0047 52.3377 76.1336 52.7041 76.2622 53.071C76.3139 53.2179 76.3655 53.3649 76.4226 53.5091C77.493 56.2175 80.6814 57.8416 83.5528 57.3049C86.4243 56.7681 88.7529 54.248 89.2507 51.3797C89.3031 51.0783 89.398 50.7053 89.6991 50.6456C90.0243 50.9162 90.0388 51.4056 89.9813 51.824C89.5649 54.861 86.8019 57.1459 83.8501 58.0088C82.5977 58.375 81.2395 58.5378 79.9941 58.1486ZM137.393 59.9669C139.202 58.5599 141.335 57.5681 143.579 57.0898C143.848 57.0323 144.253 57.0915 144.228 57.365C144.221 57.4514 144.164 57.525 144.109 57.5917C142.994 58.9317 141.362 59.7157 139.783 60.4598C139.34 60.6682 138.874 60.8815 138.386 60.8514C137.897 60.8213 137.392 60.4547 137.393 59.9669ZM145.223 60.6413C145.455 60.5673 145.709 60.4979 145.938 60.5833C146.166 60.6687 146.318 60.9815 146.157 61.1642C144.772 62.7399 142.699 63.5174 140.677 64.0898C140.148 64.2395 139.371 64.2357 139.281 63.6955C141.072 62.3577 143.09 61.3205 145.223 60.6413ZM90.8282 37.5581C90.9452 36.8371 91.085 35.9757 91.085 35.4185C91.085 34.6531 91.2015 33.7169 91.9178 33.4444C92.6043 33.1831 93.3804 33.8099 93.5126 34.5303C93.6446 35.2508 92.8281 38.1594 92.4226 38.7705C92.2372 39.0495 92.0217 39.3279 91.7166 39.4681C91.4116 39.6086 90.9964 39.563 90.8098 39.2849C90.7125 39.14 90.6906 38.9592 90.6741 38.7857C90.6574 38.612 90.7358 38.1291 90.8282 37.5581ZM90.8447 28.4976C90.8804 28.5489 90.8959 28.611 90.9103 28.6719C91.2078 29.9301 91.3233 31.231 91.2519 32.5218C90.9107 32.6747 90.628 32.2209 90.5278 31.8617L90.0988 30.3254C89.9301 29.7207 89.7942 28.9806 90.2449 28.5421C90.4084 28.3829 90.7142 28.3106 90.8447 28.4976ZM72.7913 42.1882C72.348 41.8829 71.9886 41.6354 71.9886 40.8802C71.9886 39.9867 72.9575 39.1158 73.1687 39.2849C73.9367 39.8998 75.3167 42.9489 75.3859 43.9281C74.8079 43.6929 74.382 43.3724 73.6045 42.7868C73.4351 42.6594 73.2492 42.5197 73.0415 42.3651C72.9566 42.302 72.8726 42.2442 72.7913 42.1882ZM77.8305 77.0232L79.3967 76.6932C79.592 76.6522 79.8294 76.6238 79.9599 76.7742C80.2118 77.0642 79.7158 77.4304 79.3312 77.4374C78.8048 77.4472 78.2768 77.3016 77.8305 77.0232ZM125.367 62.6862C125.651 62.7183 125.89 63.0786 125.704 63.2936L125.687 63.313C125.442 63.4994 125.16 63.696 124.856 63.6523C124.551 63.6084 124.336 63.1636 124.589 62.9879C124.822 62.8248 125.084 62.6542 125.367 62.6862ZM127.621 67.3515L127.265 67.2996L127.23 67.2962L126.476 66.1403C127.137 65.927 127.874 66.7067 127.621 67.3515ZM125.964 65.2655C125.675 65.2794 125.442 64.9195 125.575 64.6625C125.708 64.4055 126.137 64.3849 126.294 64.6278C126.451 64.871 126.254 65.2515 125.964 65.2655ZM86.4365 27.569L83.7142 28.8534C81.6346 29.8345 79.022 29.5804 77.1722 28.2166C76.9111 28.1565 76.6847 28.4673 76.7288 28.7309C76.773 28.9941 76.9877 29.1934 77.203 29.3526C78.6944 30.454 80.7338 30.5921 82.5329 30.1354C84.3321 29.6789 85.9455 28.6961 87.5088 27.6981C87.3955 27.3028 86.8094 27.393 86.4365 27.569ZM83.8773 33.5276C83.6535 33.7269 83.2663 33.4563 83.2699 33.1573C83.2735 32.8581 83.5169 32.6179 83.7678 32.4538C84.8203 31.7659 86.329 31.8727 87.2732 32.7018C87.065 33.0433 86.5777 32.9642 86.1673 32.8974C86.1353 32.8921 86.1038 32.887 86.0727 32.8821C85.2937 32.7601 84.4648 33.0037 83.8773 33.5276ZM78.8356 34.6575C79.1929 34.5762 79.5707 34.3039 79.5367 33.9404C79.5081 33.6342 79.1989 33.4308 78.9014 33.3483C78.1999 33.1539 77.3945 33.4065 76.9314 33.9664C76.4687 34.5262 76.3736 35.3624 76.6995 36.0111C76.8562 35.8713 76.9841 35.6995 77.111 35.5282C77.2998 35.2744 77.4867 35.0225 77.765 34.8815C77.9756 34.7747 78.2115 34.7463 78.4481 34.7177C78.5784 34.7019 78.709 34.6864 78.8356 34.6575ZM85.9443 38.6904C86.3763 38.6843 86.6677 38.2395 86.7764 37.8228C86.9997 36.966 86.7723 36.0058 86.1887 35.3384C85.9242 35.0363 85.4738 34.7849 85.1377 35.0048C85.0336 35.0727 84.9589 35.1773 84.8987 35.2858C84.4767 36.0453 84.688 36.9951 85.0159 37.7995C85.1884 38.222 85.4864 38.6969 85.9443 38.6904ZM80.4829 38.6921L80.3543 37.356C80.3052 36.8476 80.196 36.2496 79.7311 36.0346C79.0958 35.7408 78.4246 36.4447 78.2581 37.1225C78.0793 37.8505 78.1826 38.6435 78.5418 39.3021C78.8677 39.8993 79.6792 40.3997 80.1973 39.9576C80.5406 39.6644 80.5261 39.1405 80.4829 38.6921ZM79.4098 138.842C82.9908 138.735 86.5719 138.631 90.1529 138.527C90.5465 138.516 90.9687 138.513 91.2954 138.732C91.598 138.935 91.7637 139.323 91.7004 139.681L81.1876 139.878C80.7971 139.886 80.3928 139.89 80.0337 139.738C79.6743 139.585 79.3712 139.229 79.4098 138.842ZM83.0884 43.0164C82.7045 42.9072 82.8853 42.3396 83.0658 41.9848C83.6489 40.8385 83.3204 39.4327 82.7365 38.2868L82.7222 38.2587C82.5924 38.0048 82.4541 37.7335 82.5002 37.454C82.548 37.1642 82.9146 36.923 83.1437 37.1079C83.2126 37.1635 83.2546 37.2448 83.2944 37.3239C83.7327 38.1941 84.1627 39.0886 84.3056 40.0517C84.4483 41.0149 84.2643 42.0722 83.6014 42.7876C83.4674 42.9324 83.2784 43.0705 83.0884 43.0164ZM83.6608 46.6671C85.4585 46.38 86.9002 44.636 86.8386 42.823C86.8349 42.7152 86.8252 42.6029 86.7694 42.5104C86.6134 42.2508 86.1889 42.3114 85.9885 42.5388C85.8237 42.7257 85.7611 42.9737 85.6995 43.2183H85.6992C85.6861 43.271 85.6728 43.3234 85.6585 43.3751C85.4182 44.2477 84.8203 45.0167 84.0326 45.4668C83.994 45.4887 83.9549 45.5103 83.9156 45.5319C83.6853 45.6585 83.4487 45.7889 83.3279 46.0167C83.1867 46.2834 83.3619 46.7146 83.6608 46.6671ZM94.6362 155.845C94.7128 157.998 94.9531 164.83 94.6726 166.07C94.6204 166.3 94.5355 166.563 94.3139 166.647C93.8727 166.814 93.6138 166.153 93.6082 165.683C93.5638 161.872 93.5194 157.393 93.475 152.914V152.914C93.4306 148.435 93.3862 143.956 93.3418 140.144C94.0734 140.144 94.3139 142.716 94.3139 144.377C94.3139 149.958 94.6362 155.845 94.6362 155.845ZM69.4612 108.506C69.3542 108.444 69.2294 108.382 69.1018 108.318C68.5922 108.063 68.0314 107.782 68.3265 107.387C76.1277 107.724 83.9469 107.646 91.7399 107.153C93.947 107.014 96.4367 106.692 97.7486 104.918C97.801 104.847 97.8517 104.774 97.9025 104.7C98.0769 104.447 98.2524 104.193 98.5089 104.029C98.8401 103.818 99.3699 103.845 99.5356 104.2C99.3019 106.102 97.513 107.687 95.5901 107.697C94.7488 107.701 94.4636 108.795 94.3571 109.626C94.2503 110.458 93.6747 111.523 92.8851 111.234C93.0846 110.552 93.2134 109.85 93.2695 109.142C93.2884 108.905 93.2835 108.629 93.0991 108.477C92.9559 108.36 92.7526 108.359 92.5672 108.365L71.9767 108.95C71.8461 108.954 71.7025 108.963 71.609 109.054C71.4952 109.165 71.5059 109.347 71.5243 109.505L72.9857 121.919C73.018 122.192 73.1291 122.541 73.4053 122.543L85.0778 122.607C85.6983 122.61 86.5813 123.083 86.2023 123.572C86.047 123.773 85.7558 123.791 85.5019 123.792L73.6229 123.84C73.1211 123.842 72.9794 124.522 72.9978 125.021L73.1869 130.129C71.76 129.116 71.6622 127.082 71.6522 125.337C71.6231 120.249 71.1667 115.164 70.2894 110.153C70.18 109.527 70.0121 108.826 69.4612 108.506Z" fill="#00160A"/>
    <path fill-rule="evenodd" clip-rule="evenodd" d="M95.8921 132.622C96.3811 131.518 97.5197 130.728 98.7289 130.656C99.0434 130.637 99.4001 130.684 99.592 130.932C99.784 131.181 99.6192 131.653 99.3069 131.613C98.5573 131.515 97.8092 131.896 97.2833 132.437C96.7572 132.978 96.4141 133.665 96.0792 134.34C95.5982 133.948 95.6412 133.189 95.8921 132.622Z" fill="#00160A"/>
    <path fill-rule="evenodd" clip-rule="evenodd" d="M149.304 26.9282C149.919 26.9862 150.488 26.6312 150.998 26.2837C152.414 25.3172 153.94 23.9997 153.847 22.2911C153.817 21.7484 153.621 21.2379 153.425 20.7268C153.341 20.5081 153.257 20.2892 153.185 20.0677C152.814 18.9109 152.801 17.6912 152.787 16.4683C152.776 15.4653 152.764 14.4601 152.556 13.4858C152.481 13.1365 152.331 12.7395 151.987 12.6402C151.793 12.5842 151.586 12.6411 151.393 12.6978L145.205 14.508C144.04 14.8488 143.791 16.3566 143.757 17.5664L143.666 20.8581C143.299 20.9041 142.95 20.7604 142.6 20.6166C142.467 20.5618 142.334 20.5069 142.2 20.4626C140.877 20.0263 139.279 20.7599 138.751 22.0449C138.223 23.3299 138.847 24.9709 140.097 25.5841C141.346 26.1973 143.031 25.6896 143.731 24.4892C144.206 23.674 144.234 22.6842 144.25 21.7415L144.279 19.9713C144.29 19.3098 145.034 18.9429 145.664 18.7326C147.601 18.0848 149.557 17.4902 151.528 16.9498C151.723 16.8964 151.965 16.8563 152.098 17.0078C152.17 17.0897 152.186 17.205 152.198 17.3131L152.468 19.6306C152.508 19.9743 152.469 20.4365 152.13 20.5094C150.492 20.8613 149.035 21.9768 148.272 23.4645C147.947 24.0982 147.742 24.826 147.886 25.5234C148.03 26.2206 148.594 26.8615 149.304 26.9282ZM151.807 13.6712C151.876 13.7412 151.896 13.8443 151.913 13.941L152.101 15.0289C152.15 15.3163 152.197 15.6249 152.072 15.8887C151.875 16.3053 151.35 16.4307 150.895 16.5202C149.843 16.727 148.805 17.0015 147.789 17.3412C146.94 17.6252 146.107 17.9545 145.275 18.2837C145.204 18.3115 145.134 18.3393 145.064 18.3671C144.866 18.4451 144.594 18.5014 144.481 18.3227C144.452 18.278 144.441 18.2251 144.431 18.1732C144.232 17.1182 144.721 15.9675 145.621 15.3718C146.116 15.0438 146.702 14.8828 147.276 14.7268L151.315 13.6304C151.482 13.5851 151.686 13.5487 151.807 13.6712ZM143.658 22.3465C143.641 23.3661 143.395 24.5319 142.488 25.0255C141.768 25.4169 140.829 25.2288 140.176 24.7369C139.409 24.1595 138.988 23.0096 139.548 22.2358C139.782 21.9135 140.147 21.7046 140.524 21.568C141.391 21.254 142.382 21.2856 143.227 21.654C143.361 21.7129 143.499 21.7855 143.577 21.9087C143.658 22.0364 143.661 22.196 143.658 22.3465ZM35.5511 24.6248C35.656 24.9466 36.1124 24.9342 36.4429 24.8568L39.4484 24.1541C39.3646 23.3738 39.2125 22.6008 38.9946 21.8467C38.9303 21.6245 38.8528 21.392 38.6779 21.2399C38.4073 21.0044 38.0021 21.037 37.6456 21.0832L33.0296 21.682C32.7124 21.7231 32.2894 21.9284 32.4103 22.2233C33.4669 24.8068 34.3004 27.4813 34.8986 30.2069C35.0129 30.7281 34.9937 31.4603 34.4705 31.5748C32.9553 31.9058 31.6588 33.091 31.1972 34.5664C31.0552 35.0204 30.9907 35.5247 31.1744 35.9634C31.2739 36.2012 31.4411 36.4058 31.6282 36.5834C32.527 37.4367 33.9602 37.6737 35.0874 37.1561C36.2146 36.6383 36.9644 35.3983 36.897 34.1633C36.8715 33.6969 36.7412 33.2431 36.6118 32.7942L33.661 22.5591L37.5679 22.2536C37.9606 22.2755 38.1263 22.8311 37.9188 23.1638C37.7116 23.4965 37.2998 23.6349 36.9144 23.7122C36.8589 23.7233 36.8028 23.7338 36.7467 23.7444C36.4128 23.807 36.0731 23.8708 35.8023 24.0698C35.6271 24.1986 35.4839 24.4183 35.5511 24.6248Z" fill="#9484F7"/>
    <path fill-rule="evenodd" clip-rule="evenodd" d="M95.2484 129.309C95.1309 129.461 94.8662 129.418 94.7531 129.262C94.6403 129.107 94.6502 128.892 94.7118 128.711C94.822 128.386 95.0717 128.127 95.3331 127.904C95.9902 127.342 96.7726 126.927 97.6066 126.697C97.9357 126.606 98.3193 126.554 98.5913 126.759C98.8636 126.964 98.8197 127.511 98.48 127.541C97.2205 127.654 96.0196 128.311 95.2484 129.309Z" fill="#00160A"/>
  </g>
  <defs>
    <clipPath id="clip0_1401_3177">
      <rect width="182" height="182" fill="white"/>
    </clipPath>
  </defs>
</svg>
